<svg width="76" height="75" viewBox="0 0 76 75" fill="none" xmlns="http://www.w3.org/2000/svg">
<g clip-path="url(#clip0_1065_4824)">
<path d="M28.9853 -0.000801282C28.5667 0.061457 28.1668 0.21509 27.8142 0.449199C27.8142 0.449199 24.1651 2.74535 20.2421 5.22901C16.319 7.70977 11.9546 10.4444 10.9565 10.9982L10.7748 11.0848C7.15168 13.3204 6.39879 16.9723 6.26899 19.0204C6.26033 19.1155 6.26899 19.1934 6.26899 19.2944C6.23725 20.0617 6.26899 20.555 6.26899 20.555V58.2367C6.26899 63.7117 12.6526 66.3453 18.7103 66.3453C20.7296 66.3453 22.7488 66.0194 24.4796 65.4425C25.6334 64.8655 26.4613 63.7117 26.4613 62.5578V32.2694C26.4613 25.6348 27.9036 22.5194 32.2305 19.9232C33.3844 19.3463 45.4824 10.9954 45.4824 10.9954C46.0594 10.4184 46.6536 9.24728 46.6536 8.38189V8.11074C46.6536 6.95689 46.0767 6.0742 45.2113 5.49728C44.3459 4.92035 43.1921 4.92035 42.3267 5.49728C42.0382 5.78574 24.4421 17.6329 20.6921 19.6521C16.9421 21.9598 13.443 22.5165 12.5776 21.3627C12.3094 21.0944 12.0757 20.2723 12.0382 19.4704V19.2886C12.0411 18.504 12.243 17.0271 13.8411 16.0434C15.4623 15.1405 19.4863 12.5704 23.3978 10.0954C25.0507 9.04824 25.2555 8.93574 26.5507 8.11074C26.7212 8.81543 27.1508 9.43008 27.754 9.83233C28.3572 10.2346 29.0898 10.3949 29.8059 10.2815C30.522 10.168 31.1691 9.78902 31.6184 9.22C32.0677 8.65097 32.2862 7.93362 32.2305 7.21074V2.88381C32.2337 2.47265 32.149 2.06556 31.9821 1.68981C31.8151 1.31407 31.5697 0.978357 31.2624 0.70519C30.9551 0.432022 30.593 0.227709 30.2002 0.105947C29.8075 -0.0158142 29.3933 -0.0522104 28.9853 -0.000801282ZM52.0623 10.0954C51.6035 10.1716 51.1701 10.3577 50.7988 10.6377C50.7988 10.6377 36.2776 20.4079 33.7623 22.0838L33.6728 22.1761C31.5844 23.7425 30.3469 25.6059 29.7959 27.3107C29.4889 28.2729 29.337 29.2778 29.3459 30.2877V31.1905C29.3417 31.2799 29.3417 31.3694 29.3459 31.4588V66.3453C29.3459 71.8261 35.6574 74.9992 41.4267 74.9992C44.0228 74.9992 46.3651 74.4396 48.0959 73.2857C51.5574 71.2665 68.2882 58.2338 68.2882 58.2338C69.1536 57.6569 69.7305 56.8434 69.7305 55.978V18.478C69.7305 17.0357 69.1709 16.1704 68.0171 15.5934C67.1517 15.0165 65.7296 15.2877 64.8642 15.8646C60.2488 19.3261 47.8248 29.0992 44.9401 30.83C40.9017 33.1377 37.0969 33.7146 35.6546 32.2723C35.0776 31.6953 35.1151 31.153 35.1151 30.2877C35.1305 29.7877 35.1911 29.3665 35.2969 29.0242C35.4584 28.5223 35.7873 27.905 37.0074 26.953C37.0651 26.9069 37.0363 26.9098 37.0969 26.8636C39.1824 25.4703 45.5603 21.1232 49.7199 18.2963C49.9556 18.9285 50.4054 19.4581 50.9912 19.793C51.5769 20.1279 52.2615 20.2469 52.9259 20.1292C53.5902 20.0116 54.1923 19.6648 54.6275 19.1491C55.0626 18.6335 55.3032 17.9816 55.3074 17.3069V12.98C55.3107 12.5688 55.226 12.1617 55.059 11.786C54.892 11.4102 54.6467 11.0745 54.3393 10.8013C54.032 10.5282 53.6699 10.3239 53.2771 10.2021C52.8844 10.0803 52.4702 10.0439 52.0623 10.0954ZM63.9613 31.1905V36.9598L49.5382 48.1348V42.3655L63.9613 31.1905Z" fill="#EA5D0E"/>
</g>
<defs>
<clipPath id="clip0_1065_4824">
<rect width="75" height="75" fill="white" transform="translate(0.5)"/>
</clipPath>
</defs>
</svg>
