<svg width="28" height="28" viewBox="0 0 28 28" fill="none" xmlns="http://www.w3.org/2000/svg">
<rect width="28" height="28" rx="3.29412" fill="#FADFCD"/>
<rect x="0.411765" y="0.411765" width="27.1765" height="27.1765" rx="2.88235" stroke="#EA5D0E" stroke-opacity="0.3" stroke-width="0.823529"/>
<path d="M7.82391 16.4713V9.05951C7.82391 8.73189 7.95406 8.41769 8.18572 8.18603C8.41739 7.95437 8.73159 7.82422 9.05921 7.82422H15.8533M7.82391 16.4713C7.82391 16.1437 7.95406 15.8295 8.18572 15.5978C8.41739 15.3661 8.73159 15.236 9.05921 15.236H9.67685M7.82391 16.4713C7.82391 16.7989 7.95406 17.1131 8.18572 17.3448C8.41739 17.5764 8.73159 17.7066 9.05921 17.7066H9.67685M20.1769 17.7066H13.3827C13.0551 17.7066 12.7409 17.8367 12.5093 18.0684C12.2776 18.3 12.1474 18.6142 12.1474 18.9419M12.1474 18.9419C12.1474 19.2695 12.2776 19.5837 12.5093 19.8154C12.7409 20.047 13.0551 20.1772 13.3827 20.1772H19.868C19.9499 20.1772 20.0285 20.1446 20.0864 20.0867C20.1443 20.0288 20.1769 19.9502 20.1769 19.8683V10.6036C20.1769 10.5217 20.1443 10.4432 20.0864 10.3853C20.0285 10.3273 19.9499 10.2948 19.868 10.2948H13.3827C13.0551 10.2948 12.7409 10.425 12.5093 10.6566C12.2776 10.8883 12.1474 11.2025 12.1474 11.5301V18.9419Z" stroke="black" stroke-width="1.23529" stroke-linecap="round" stroke-linejoin="round"/>
</svg>
