<svg width="16" height="16" viewBox="0 0 16 16" fill="none" xmlns="http://www.w3.org/2000/svg">
<path d="M2 4.0026H14H2Z" fill="#F9C4A6"/>
<path d="M12.6667 4.0026V13.3359C12.6667 14.0026 12 14.6693 11.3333 14.6693H4.66667C4 14.6693 3.33333 14.0026 3.33333 13.3359V4.0026" fill="#F9C4A6"/>
<path d="M5.33333 4.0026V2.66927C5.33333 2.0026 6 1.33594 6.66667 1.33594H9.33333C10 1.33594 10.6667 2.0026 10.6667 2.66927V4.0026" fill="#F9C4A6"/>
<path d="M2 4.0026H14M12.6667 4.0026V13.3359C12.6667 14.0026 12 14.6693 11.3333 14.6693H4.66667C4 14.6693 3.33333 14.0026 3.33333 13.3359V4.0026M5.33333 4.0026V2.66927C5.33333 2.0026 6 1.33594 6.66667 1.33594H9.33333C10 1.33594 10.6667 2.0026 10.6667 2.66927V4.0026" stroke="#FB803C" stroke-width="1.33333" stroke-linecap="round" stroke-linejoin="round"/>
</svg>
